<?xml version="1.0" encoding="UTF-8" standalone="no"?>
<svg
   xmlns:dc="http://purl.org/dc/elements/1.1/"
   xmlns:cc="http://creativecommons.org/ns#"
   xmlns:rdf="http://www.w3.org/1999/02/22-rdf-syntax-ns#"
   xmlns:svg="http://www.w3.org/2000/svg"
   xmlns="http://www.w3.org/2000/svg"
   version="1.1"
   id="svg4791"
   viewBox="0 0 303.74999 303.74999"
   height="85.724998mm"
   width="85.724998mm">
  <defs
     id="defs4793" />
  <metadata
     id="metadata4796">
    <rdf:RDF>
      <cc:Work
         rdf:about="">
        <dc:format>image/svg+xml</dc:format>
        <dc:type
           rdf:resource="http://purl.org/dc/dcmitype/StillImage" />
        <dc:title></dc:title>
      </cc:Work>
    </rdf:RDF>
  </metadata>
  <g
     transform="translate(363.30356,-854.77295)"
     id="layer1">
    <rect
       ry="30.000023"
       y="856.64795"
       x="-361.42856"
       height="300"
       width="300"
       id="rect4408-0-8"
       style="color:#000000;clip-rule:nonzero;display:inline;overflow:visible;visibility:visible;opacity:1;isolation:auto;mix-blend-mode:normal;color-interpolation:sRGB;color-interpolation-filters:linearRGB;solid-color:#000000;solid-opacity:1;fill:#7373d7;fill-opacity:1;fill-rule:nonzero;stroke:#ffffff;stroke-width:3.75;stroke-linecap:butt;stroke-linejoin:miter;stroke-miterlimit:4;stroke-dasharray:none;stroke-dashoffset:0;stroke-opacity:1;color-rendering:auto;image-rendering:auto;shape-rendering:auto;text-rendering:auto;enable-background:accumulate" />
    <ellipse
       ry="3.99525"
       rx="7.9905"
       cy="1131.6439"
       cx="-211.42857"
       id="path4832-9-8"
       style="fill:#2c2c9b;fill-opacity:1;stroke:#ffffff;stroke-width:5;stroke-miterlimit:4;stroke-dasharray:none;stroke-opacity:1" />
    <path
       id="path4825-3-4"
       d="m -147.50457,1007.1028 c 0,21.0249 -10.15037,39.6791 -25.81806,51.3295 -3.29957,2.4536 -6.84383,30.1661 -10.58953,31.9551 -27.51641,0.6156 -27.51641,0.6156 -55.25389,-0.1061 -4.18947,-2.0208 -3.55171,-18.622 -7.172,-21.469 -5.21316,-4.0996 -9.64361,1.1866 -15.61737,-2.1271 -3.89659,-2.1615 -2.1763,-9.9752 -2.84919,-12.1693 -0.14248,-0.4645 -1.30102,-1.7131 -1.45457,-2.3232 -0.19971,-0.7935 0.56496,-1.9028 0.28384,-3.4673 -0.20772,-1.156 -1.45089,-2.824 -1.66906,-3.4313 -0.30916,-0.8604 0.26874,-1.9456 0.10695,-2.9338 -0.57803,-3.5305 -1.72209,-3.4988 -2.20708,-6.8187 -0.44446,-3.0426 -20.19072,3.5296 -7.92966,-12.4777 1.81551,-2.3702 7.49724,-11.2148 7.89335,-14.0915 0.36163,-2.6265 -1.51135,-5.7824 -1.1309,-9.2401 0.52714,-4.79085 0.71021,-18.25094 2.91343,-22.42529 10.71177,-20.29518 32.02532,-34.12821 56.56974,-34.12821 35.30425,0 63.924,28.61975 63.924,63.924 z"
       style="fill:#2c2c9b;fill-opacity:1;stroke:#ffffff;stroke-width:5;stroke-miterlimit:4;stroke-dasharray:none;stroke-opacity:1" />
    <rect
       y="1089.4049"
       x="-239.39532"
       height="31.962"
       width="55.933498"
       id="rect4828-1-3"
       style="fill:#2c2c9b;fill-opacity:1;stroke:#ffffff;stroke-width:5;stroke-miterlimit:4;stroke-dasharray:none;stroke-opacity:1" />
    <rect
       ry="3.99525"
       y="877.65668"
       x="-215.42383"
       height="47.943008"
       width="7.9905"
       id="rect4834-47-4"
       style="fill:#2c2c9b;fill-opacity:1;stroke:#ffffff;stroke-width:5;stroke-miterlimit:4;stroke-dasharray:none;stroke-opacity:1" />
    <rect
       transform="matrix(0.8660254,-0.50000001,0.50000001,0.8660254,0,0)"
       ry="3.99525"
       y="637.08899"
       x="-690.37744"
       height="47.943005"
       width="7.9905"
       id="rect4834-4-8-9"
       style="fill:#2c2c9b;fill-opacity:1;stroke:#ffffff;stroke-width:5;stroke-miterlimit:4;stroke-dasharray:none;stroke-opacity:1" />
    <rect
       transform="matrix(0.8660254,0.50000001,-0.50000001,0.8660254,0,0)"
       ry="3.99525"
       y="848.51764"
       x="316.18188"
       height="47.943005"
       width="7.9905"
       id="rect4834-7-4-2"
       style="fill:#2c2c9b;fill-opacity:1;stroke:#ffffff;stroke-width:5;stroke-miterlimit:4;stroke-dasharray:none;stroke-opacity:1" />
    <rect
       transform="matrix(0.50000001,0.8660254,-0.8660254,0.50000001,0,0)"
       ry="3.99525"
       y="557.47955"
       x="761.9964"
       height="47.943005"
       width="7.9905"
       id="rect4834-2-5-0"
       style="fill:#2c2c9b;fill-opacity:1;stroke:#ffffff;stroke-width:5;stroke-miterlimit:4;stroke-dasharray:none;stroke-opacity:1" />
    <rect
       transform="matrix(-0.50000001,0.8660254,-0.8660254,-0.50000001,0,0)"
       ry="3.99525"
       y="-449.07974"
       x="973.42499"
       height="47.943005"
       width="7.9905"
       id="rect4834-40-0-6"
       style="fill:#2c2c9b;fill-opacity:1;stroke:#ffffff;stroke-width:5;stroke-miterlimit:4;stroke-dasharray:none;stroke-opacity:1" />
    <rect
       transform="matrix(0,1,-1,0,0,0)"
       ry="3.99525"
       y="82.525986"
       x="1002.5641"
       height="47.943008"
       width="7.9905"
       id="rect4834-40-6-3-8"
       style="fill:#2c2c9b;fill-opacity:1;stroke:#ffffff;stroke-width:5;stroke-miterlimit:4;stroke-dasharray:none;stroke-opacity:1" />
    <rect
       transform="matrix(0.50000001,-0.8660254,0.8660254,0.50000001,0,0)"
       ry="3.99525"
       y="191.27454"
       x="-981.41541"
       height="47.943005"
       width="7.9905"
       id="rect4834-29-6-9"
       style="fill:#2c2c9b;fill-opacity:1;stroke:#ffffff;stroke-width:5;stroke-miterlimit:4;stroke-dasharray:none;stroke-opacity:1" />
    <rect
       transform="matrix(0,-1,1,0,0,0)"
       ry="3.99525"
       y="-340.33118"
       x="-1010.5546"
       height="47.943008"
       width="7.9905"
       id="rect4834-29-9-1-2"
       style="fill:#2c2c9b;fill-opacity:1;stroke:#ffffff;stroke-width:5;stroke-miterlimit:4;stroke-dasharray:none;stroke-opacity:1" />
    <rect
       transform="matrix(-0.50000001,-0.8660254,0.8660254,-0.50000001,0,0)"
       ry="3.99525"
       y="-815.28473"
       x="-769.98688"
       height="47.943005"
       width="7.9905"
       id="rect4834-29-9-0-0-6"
       style="fill:#2c2c9b;fill-opacity:1;stroke:#ffffff;stroke-width:5;stroke-miterlimit:4;stroke-dasharray:none;stroke-opacity:1" />
    <path
       id="path4607"
       d="m -196.5325,1086.6069 c 0.5257,0.1314 1.41216,-28.5674 5.66484,-36.8903 8.49515,-16.6259 34.88913,-44.5532 4.1283,-31.5269 -14.63538,6.1976 10.71178,16.0074 19.87332,8.9708 6.84137,-5.2546 7.78987,-6.6554 9.38265,-11.2793 1.66079,-4.8213 1.38821,-9.3395 -0.46482,-15.291 -4.60171,-14.77957 -27.69487,-29.63004 -15.58004,-5.86335 6.0083,11.78695 10.13825,-14.03876 2.92456,-21.461 -10.46078,-10.7632 -32.24555,-9.29575 -17.62158,0.86864 11.0073,7.6506 7.99811,-6.30936 -3.95026,-14.38699 -13.46479,-9.10279 -32.7491,12.07758 -16.34417,11.02587 14.5556,-0.93317 2.86238,-17.92475 -16.44503,-14.47737 -11.81893,2.11029 -16.46495,22.83903 -4.80575,16.9257 7.29756,-3.70119 -5.00498,-17.55547 -16.19084,-3.40735 -8.72235,11.03224 -1.13764,30.93765 4.68436,14.14541 1.76571,-5.09275 -17.03059,-8.78426 -18.08956,2.28409 -1.8688,19.53255 6.59306,17.62785 18.70044,21.75915 16.52167,5.6375 33.27587,6.4976 22.1543,-5.6517 -18.20169,-19.88359 -37.11832,6.2731 1.64556,20.0575 1.4625,0.5201 3.01495,1.2945 4.47385,2.2721 2.63745,1.7673 4.96913,4.1986 5.91074,6.9915 4.91126,14.567 1.43657,41.2961 -0.59831,54.8694 z"
       style="fill:#2c2c9b;fill-opacity:1;fill-rule:evenodd;stroke:#ffffff;stroke-width:5;stroke-linecap:butt;stroke-linejoin:miter;stroke-miterlimit:4;stroke-dasharray:none;stroke-opacity:1" />
    <path
       id="path4609"
       d="m -238.56737,1099.4306 54.5581,-7.8355"
       style="fill:#2c2c9b;fill-opacity:1;fill-rule:evenodd;stroke:#ffffff;stroke-width:5;stroke-linecap:butt;stroke-linejoin:miter;stroke-miterlimit:4;stroke-dasharray:none;stroke-opacity:1" />
    <path
       id="path4609-7"
       d="m -238.56737,1108.5768 54.5581,-7.8354"
       style="fill:#2c2c9b;fill-opacity:1;fill-rule:evenodd;stroke:#ffffff;stroke-width:5;stroke-linecap:butt;stroke-linejoin:miter;stroke-miterlimit:4;stroke-dasharray:none;stroke-opacity:1" />
    <path
       id="path4609-7-2"
       d="m -238.56737,1117.7231 54.5581,-7.8355"
       style="fill:#2c2c9b;fill-opacity:1;fill-rule:evenodd;stroke:#ffffff;stroke-width:5;stroke-linecap:butt;stroke-linejoin:miter;stroke-miterlimit:4;stroke-dasharray:none;stroke-opacity:1" />
    <path
       id="path4830-9-1"
       d="m -239.39532,1121.3669 19.97625,7.9905 15.981,0 19.97625,-7.9905 z"
       style="fill:#2c2c9b;fill-opacity:1;fill-rule:evenodd;stroke:#ffffff;stroke-width:5;stroke-linecap:butt;stroke-linejoin:miter;stroke-miterlimit:4;stroke-dasharray:none;stroke-opacity:1" />
  </g>
</svg>
