<?xml version="1.0" encoding="UTF-8" standalone="no"?>
<svg
   xmlns:dc="http://purl.org/dc/elements/1.1/"
   xmlns:cc="http://creativecommons.org/ns#"
   xmlns:rdf="http://www.w3.org/1999/02/22-rdf-syntax-ns#"
   xmlns:svg="http://www.w3.org/2000/svg"
   xmlns="http://www.w3.org/2000/svg"
   version="1.1"
   id="svg6059"
   viewBox="0 0 303.74999 303.74999"
   height="85.724998mm"
   width="85.724998mm">
  <defs
     id="defs6061" />
  <metadata
     id="metadata6064">
    <rdf:RDF>
      <cc:Work
         rdf:about="">
        <dc:format>image/svg+xml</dc:format>
        <dc:type
           rdf:resource="http://purl.org/dc/dcmitype/StillImage" />
        <dc:title></dc:title>
      </cc:Work>
    </rdf:RDF>
  </metadata>
  <g
     transform="translate(-556.69641,-963.34436)"
     id="layer1">
    <rect
       ry="30.000023"
       y="965.21936"
       x="558.57141"
       height="300"
       width="300"
       id="rect4408-0-7"
       style="color:#000000;clip-rule:nonzero;display:inline;overflow:visible;visibility:visible;opacity:1;isolation:auto;mix-blend-mode:normal;color-interpolation:sRGB;color-interpolation-filters:linearRGB;solid-color:#000000;solid-opacity:1;fill:#7373d7;fill-opacity:1;fill-rule:nonzero;stroke:#ffffff;stroke-width:3.75;stroke-linecap:butt;stroke-linejoin:miter;stroke-miterlimit:4;stroke-dasharray:none;stroke-dashoffset:0;stroke-opacity:1;color-rendering:auto;image-rendering:auto;shape-rendering:auto;text-rendering:auto;enable-background:accumulate" />
    <g
       style="fill:#2c2c9b;fill-opacity:1"
       id="g4744"
       transform="translate(38.571429,262.85717)">
      <path
         style="fill:#2c2c9b;fill-opacity:1;stroke:#ffffff;stroke-width:5;stroke-miterlimit:4;stroke-dasharray:none;stroke-opacity:1"
         d="M 640.14648,739.79688 600,764.92773 c 10e-6,-10e-6 -5,2.23001 -5,5 l 0,190 c 0,2.77 2.23001,5 5,5 l 140,0 c 2.76999,0 5,-2.23 5,-5 l 0,-190 c 0,-2.76999 -2.65025,-3.53319 -5,-5 l -40.05273,-25.0039 -59.80079,-0.12695 z M 672.5,754.92773 a 17.5,17.5 0 0 1 17.5,17.5 17.5,17.5 0 0 1 -17.5,17.5 17.5,17.5 0 0 1 -17.5,-17.5 17.5,17.5 0 0 1 17.5,-17.5 z"
         id="rect5014-1" />
      <path
         style="fill:#ffffff;fill-opacity:1;stroke:none;stroke-width:5;stroke-miterlimit:4;stroke-dasharray:none;stroke-opacity:1"
         d="m 657,829.92773 0,13.39063 c -6.12368,1.12127 -11.34642,2.95006 -15.66211,5.49023 -7.67097,4.54752 -11.50586,10.76961 -11.50586,18.66797 0,6.8213 2.78746,12.14708 8.36133,15.97656 4.2544,2.92296 10.53335,5.24858 18.80664,6.98633 l 0,33.51758 c -2.22732,-0.31597 -4.4689,-0.7082 -6.72266,-1.19141 -6.51201,-1.3962 -13.16123,-3.4702 -19.94922,-6.22265 l 0,12.44531 c 7.06389,1.87485 13.88004,3.29066 20.44727,4.24805 2.11937,0.30639 4.18437,0.54557 6.22461,0.7539 l 0,10.9375 10,0 0,-10.30664 c 0.82915,0.0186 1.66824,0.0508 2.48242,0.0508 2.61535,0 5.11571,-0.0682 7.51758,-0.19532 l 0,10.45117 10,0 0,-11.43945 c 7.17834,-1.08782 13.10097,-2.92297 17.74805,-5.51758 8.05726,-4.46774 12.08593,-11.02927 12.08593,-19.68554 0,-7.26006 -2.98126,-13.04534 -8.9414,-17.35352 -4.79047,-3.52742 -11.78,-6.17212 -20.89258,-7.9668 l 0,-30.28515 c 1.4605,0.2094 2.93244,0.45172 4.41992,0.73633 5.62902,1.07703 11.61647,2.71222 17.96289,4.90625 l 0,-11.78907 c -6.29126,-1.51586 -12.44368,-2.65221 -18.45898,-3.41015 -1.31359,-0.16551 -2.62077,-0.30619 -3.92383,-0.43555 l 0,-12.75977 -10,0 0,12.11915 c -1.2685,-0.0357 -2.53293,-0.0606 -3.79102,-0.0606 -2.14507,0 -4.20976,0.0652 -6.20898,0.17969 l 0,-12.23829 -10,0 z m 18.11133,21.8711 c 0.62619,0 1.25697,0.008 1.88867,0.0234 l 0,29.52343 -6.77148,-1.0039 C 669.10777,880.19047 668.03319,880.03173 667,879.8691 l 0,-27.66016 c 2.49861,-0.2636 5.18534,-0.41015 8.11133,-0.41015 z M 657,854.35742 l 0,23.36914 c -2.29749,-0.68294 -4.14068,-1.42541 -5.48047,-2.23242 -3.25601,-2.03441 -4.88281,-5.02542 -4.88281,-8.97461 0,-4.70709 2.45557,-8.3376 7.36719,-10.89062 0.91971,-0.47275 1.93445,-0.88628 2.99609,-1.27149 z m 10,37.77735 8.44336,1.1914 c 0.53796,0.0783 1.03792,0.16677 1.55664,0.25 l 0,30.94922 c -2.33977,0.21445 -4.83314,0.33399 -7.51758,0.33399 -0.82587,0 -1.65274,-0.015 -2.48242,-0.0391 l 0,-32.68554 z m 20,3.71289 c 2.75714,0.8826 5.01909,1.89303 6.73828,3.04296 3.75273,2.47325 5.62891,5.90306 5.62891,10.29102 0,5.02621 -2.59373,8.89684 -7.78125,11.60938 -1.37227,0.71756 -2.9086,1.33358 -4.58594,1.86132 l 0,-26.80468 z"
         id="rect5050-1-9" />
    </g>
  </g>
</svg>
